HIERARCHY
ROOT joint_0
{
	OFFSET 0.000000 0.000000 0.000000
	CHANNELS 6 Xposition Yposition Zposition Zrotation Yrotation Xrotation 
	JOINT joint_1
	{
		OFFSET 7.566162 2.250183 114.799927
		CHANNELS 3 Zrotation Yrotation Xrotation
		JOINT joint_2
		{
			OFFSET -5.201660 -0.414001 104.936035
			CHANNELS 3 Zrotation Yrotation Xrotation
			JOINT joint_3
			{
				OFFSET -6.923584 -0.419739 104.718018
				CHANNELS 3 Zrotation Yrotation Xrotation
				JOINT joint_4
				{
					OFFSET 3.108887 2.881104 149.449951
					CHANNELS 3 Zrotation Yrotation Xrotation
					JOINT joint_5
					{
						OFFSET 19.988770 5.920349 90.786987
						CHANNELS 3 Zrotation Yrotation Xrotation
						End Site
						{
							OFFSET 0.000000 0.000000 0.000000
						}
					}
				}
				JOINT joint_6
				{
					OFFSET 9.283936 -30.015930 84.410034
					CHANNELS 3 Zrotation Yrotation Xrotation
					JOINT joint_7
					{
						OFFSET 47.243164 -155.716736 -23.241089
						CHANNELS 3 Zrotation Yrotation Xrotation
						JOINT joint_8
						{
							OFFSET 31.323730 -15.356873 -268.798950
							CHANNELS 3 Zrotation Yrotation Xrotation
							JOINT joint_9
							{
								OFFSET 28.122314 -2.114624 -262.450012
								CHANNELS 3 Zrotation Yrotation Xrotation
								End Site
								{
									OFFSET 0.000000 0.000000 0.000000
								}
							}
						}
					}
				}
				JOINT joint_10
				{
					OFFSET -5.580566 33.311218 83.498047
					CHANNELS 3 Zrotation Yrotation Xrotation
					JOINT joint_11
					{
						OFFSET -22.773438 160.515381 -27.138062
						CHANNELS 3 Zrotation Yrotation Xrotation
						JOINT joint_12
						{
							OFFSET 27.004395 30.848877 -267.937988
							CHANNELS 3 Zrotation Yrotation Xrotation
							JOINT joint_13
							{
								OFFSET 32.625000 14.824585 -261.518005
								CHANNELS 3 Zrotation Yrotation Xrotation
								End Site
								{
									OFFSET 0.000000 0.000000 0.000000
								}
							}
						}
					}
				}
			}
		}
	}
	JOINT joint_14
	{
		OFFSET 20.623535 -83.447632 -106.174011
		CHANNELS 3 Zrotation Yrotation Xrotation
		JOINT joint_15
		{
			OFFSET 0.661865 -23.563843 -459.915039
			CHANNELS 3 Zrotation Yrotation Xrotation
			JOINT joint_16
			{
				OFFSET -23.461670 -28.727966 -444.760971
				CHANNELS 3 Zrotation Yrotation Xrotation
				JOINT joint_17
				{
					OFFSET 178.992920 54.047363 -80.113001
					CHANNELS 3 Zrotation Yrotation Xrotation
					End Site
					{
						OFFSET 0.000000 0.000000 0.000000
					}
				}
			}
		}
	}
	JOINT joint_18
	{
		OFFSET -19.571533 84.686279 -105.380005
		CHANNELS 3 Zrotation Yrotation Xrotation
		JOINT joint_19
		{
			OFFSET -22.949951 3.639404 -459.933044
			CHANNELS 3 Zrotation Yrotation Xrotation
			JOINT joint_20
			{
				OFFSET -33.690674 4.092651 -445.010971
				CHANNELS 3 Zrotation Yrotation Xrotation
				JOINT joint_21
				{
					OFFSET 187.419678 18.953857 -76.759001
					CHANNELS 3 Zrotation Yrotation Xrotation
					End Site
					{
						OFFSET 0.000000 0.000000 0.000000
					}
				}
			}
		}
	}
}
MOTION
Frames: 18
Frame Time: 0.016667
-3413.767090 932.103821 1109.123047 -13.138298 1.756350 -0.139998 0.337708 -0.290948 0.436979 0.320033 -0.028191 -0.061579 0.326469 0.013989 0.036899 0.053721 0.513754 -0.381363 0.000000 0.000000 0.000000 1.524605 2.589820 0.220815 0.450451 3.588039 2.870018 -0.228542 2.908118 -1.768766 0.000000 0.000000 0.000000 1.633669 3.534492 0.269982 -0.407294 2.313539 -6.031341 0.463442 3.681745 1.257681 0.000000 0.000000 0.000000 -0.447434 2.440898 -1.726960 -0.246128 -3.011818 0.273406 -0.399472 -1.650878 0.321411 0.000000 0.000000 0.000000 1.853443 -0.437947 1.188400 1.892056 0.254320 0.489376 1.857267 -0.675703 0.828761 0.000000 0.000000 0.000000 
-3413.455566 932.035278 1109.392944 -13.065585 1.711220 -0.155649 0.473691 0.471125 0.380294 0.443531 -0.059389 -0.044060 0.446979 0.077747 0.007935 0.082199 -0.083051 -0.346183 0.000000 0.000000 0.000000 1.351060 2.946501 0.228511 0.379473 3.861277 2.651262 -0.137587 1.651878 -0.996559 0.000000 0.000000 0.000000 1.436459 3.427097 -0.006781 -0.367504 2.327283 -5.712991 0.386076 3.056023 1.130388 0.000000 0.000000 0.000000 -0.471180 2.510507 -1.720218 -0.268945 -2.987558 0.295549 -0.415967 -1.693830 0.327053 0.000000 0.000000 0.000000 1.824390 -0.385578 1.223439 1.864800 0.275182 0.472149 1.828831 -0.706693 0.820231 0.000000 0.000000 0.000000 
-3412.129150 931.906433 1109.467041 -12.947661 2.053847 -0.244130 0.563647 0.896613 0.303010 0.525595 -0.082989 -0.022970 0.525998 0.128714 -0.017182 0.098785 -1.005061 -0.157176 0.000000 0.000000 0.000000 1.335356 3.275244 0.159504 0.346243 4.155572 2.456310 -0.035375 0.774890 -0.177613 0.000000 0.000000 0.000000 1.330057 3.492327 -0.101332 -0.336741 2.439837 -5.629804 0.305940 2.397923 0.969083 0.000000 0.000000 0.000000 -0.513394 2.251147 -1.646221 -0.313436 -3.032342 0.338294 -0.460314 -1.724477 0.316639 0.000000 0.000000 0.000000 1.793790 -0.672789 1.341182 1.844690 0.220705 0.414559 1.805634 -0.723048 0.812383 0.000000 0.000000 0.000000 
-3409.448486 931.700012 1109.152954 -12.764926 3.088174 -0.453295 0.557376 0.689896 0.184079 0.528074 -0.098503 -0.000932 0.525786 0.155135 -0.032548 0.095027 -2.555246 0.350030 0.000000 0.000000 0.000000 1.604123 3.545972 -0.077834 0.358252 4.493477 2.307510 0.084867 0.535026 0.839506 0.000000 0.000000 0.000000 1.434381 3.897218 0.146912 -0.323661 2.741410 -6.018992 0.213432 1.545340 0.795109 0.000000 0.000000 0.000000 -0.582709 1.376602 -1.457104 -0.392198 -3.200717 0.417025 -0.551096 -1.716883 0.274153 0.000000 0.000000 0.000000 1.758098 -1.592464 1.606631 1.835407 0.033153 0.280549 1.789604 -0.690212 0.802502 0.000000 0.000000 0.000000 
-3405.751709 931.433228 1108.642944 -12.540645 4.502919 -0.728230 0.495435 0.165070 0.044337 0.488158 -0.091148 0.014261 0.484317 0.133895 -0.035764 0.097640 -4.437227 1.024736 0.000000 0.000000 0.000000 2.008009 3.798020 -0.397183 0.403778 4.863368 2.189403 0.211370 0.656282 1.916814 0.000000 0.000000 0.000000 1.661118 4.477060 0.526948 -0.317163 3.156967 -6.582396 0.119744 0.659485 0.582935 0.000000 0.000000 0.000000 -0.671478 0.184370 -1.201662 -0.495852 -3.441933 0.515688 -0.674796 -1.678491 0.207959 0.000000 0.000000 0.000000 1.719653 -2.842618 1.951762 1.831566 -0.233061 0.103191 1.776456 -0.618069 0.789721 0.000000 0.000000 0.000000 
-3401.324951 931.167908 1108.239990 -12.321150 5.739361 -0.980854 0.433413 -0.285886 -0.065701 0.449074 -0.054513 0.026889 0.444373 0.062797 -0.034004 0.117097 -5.861790 1.520592 0.000000 0.000000 0.000000 2.342112 3.989446 -0.596675 0.465188 5.142236 2.126240 0.270889 1.076053 2.452032 0.000000 0.000000 0.000000 1.836713 4.912958 0.737802 -0.322819 3.502398 -6.848800 0.063135 0.382141 0.292170 0.000000 0.000000 0.000000 -0.763932 -0.782627 -0.961898 -0.600898 -3.653469 0.593866 -0.797751 -1.652511 0.146038 0.000000 0.000000 0.000000 1.695358 -3.864775 2.241135 1.836682 -0.472536 -0.040202 1.773100 -0.571645 0.783406 0.000000 0.000000 0.000000 
-3396.221680 930.910339 1108.079956 -12.123287 6.579485 -1.188481 0.390723 -0.594299 -0.116249 0.424368 0.021343 0.047180 0.418413 -0.040582 -0.038495 0.137978 -6.423453 1.662673 0.000000 0.000000 0.000000 2.570421 4.071502 -0.557287 0.536423 5.250038 2.148230 0.204099 2.014285 1.999356 0.000000 0.000000 0.000000 1.842658 5.058834 0.653323 -0.349885 3.696406 -6.583847 0.061412 1.214382 -0.190322 0.000000 0.000000 0.000000 -0.859620 -1.313169 -0.755221 -0.701769 -3.787261 0.637630 -0.908802 -1.659889 0.099556 0.000000 0.000000 0.000000 1.703456 -4.435179 2.424023 1.865275 -0.646700 -0.115556 1.795648 -0.595916 0.794738 0.000000 0.000000 0.000000 
-3390.386963 930.654236 1108.027954 -11.928894 7.256791 -1.379493 0.351940 -0.860999 -0.138015 0.402310 0.115068 0.072465 0.394792 -0.148535 -0.048325 0.154079 -6.540936 1.628300 0.000000 0.000000 0.000000 2.753591 4.080197 -0.391590 0.621317 5.252354 2.212685 0.076395 3.281421 1.015259 0.000000 0.000000 0.000000 1.767172 5.053611 0.422705 -0.380275 3.808827 -6.055746 0.102938 2.649608 -0.743509 0.000000 0.000000 0.000000 -0.958114 -1.638373 -0.560509 -0.801237 -3.887169 0.661855 -1.015095 -1.686623 0.061160 0.000000 0.000000 0.000000 1.725501 -4.795574 2.555260 1.904588 -0.790896 -0.155729 1.830303 -0.657852 0.814729 0.000000 0.000000 0.000000 
-3383.942139 930.442505 1107.982056 -11.722925 7.901133 -1.545864 0.326815 -0.970813 -0.171572 0.388447 0.167980 0.089601 0.379696 -0.199022 -0.058101 0.171368 -6.690941 1.591547 0.000000 0.000000 0.000000 2.845076 4.079084 -0.272730 0.696874 5.242283 2.262593 -0.016276 4.212843 0.250309 0.000000 0.000000 0.000000 1.712823 5.004599 0.217916 -0.398575 3.859248 -5.617406 0.164506 3.816961 -1.028825 0.000000 0.000000 0.000000 -1.045826 -1.892867 -0.403600 -0.887735 -3.984911 0.673567 -1.107979 -1.736928 0.036035 0.000000 0.000000 0.000000 1.721373 -5.099463 2.660580 1.916683 -0.907186 -0.181896 1.839198 -0.727731 0.824901 0.000000 0.000000 0.000000 
-3377.026611 930.261475 1107.973022 -11.495499 8.512488 -1.673158 0.326816 -0.784075 -0.239363 0.386664 0.147004 0.090852 0.377223 -0.160958 -0.064397 0.195324 -7.082238 1.612639 0.000000 0.000000 0.000000 2.786085 4.064371 -0.312701 0.747266 5.254202 2.335481 -0.051818 4.513219 -0.055199 0.000000 0.000000 0.000000 1.725445 4.919897 0.154702 -0.419286 3.798777 -5.480228 0.245527 4.422980 -0.779946 0.000000 0.000000 0.000000 -1.113092 -2.070768 -0.298767 -0.949688 -4.110031 0.660297 -1.180508 -1.795615 0.022686 0.000000 0.000000 0.000000 1.670126 -5.359329 2.741848 1.879736 -0.989226 -0.192803 1.801619 -0.783837 0.814634 0.000000 0.000000 0.000000 
-3369.501709 930.125854 1107.968994 -11.254926 9.084020 -1.773151 0.343507 -0.428315 -0.318125 0.390835 0.091297 0.083056 0.381019 -0.083467 -0.067411 0.220122 -7.500162 1.628856 0.000000 0.000000 0.000000 2.629493 4.035175 -0.426714 0.780175 5.266460 2.423413 -0.063195 4.472726 -0.156971 0.000000 0.000000 0.000000 1.768745 4.799470 0.142945 -0.438838 3.672561 -5.461299 0.337439 4.760493 -0.259263 0.000000 0.000000 0.000000 -1.169698 -2.169963 -0.234404 -0.998322 -4.234269 0.634994 -1.239656 -1.873620 0.021319 0.000000 0.000000 0.000000 1.593512 -5.553736 2.796028 1.815388 -1.045705 -0.187819 1.738437 -0.844596 0.794326 0.000000 0.000000 0.000000 
-3361.072510 930.120544 1107.782959 -11.013542 9.732243 -1.874729 0.354668 -0.183343 -0.385777 0.393234 0.051523 0.081910 0.382559 -0.031673 -0.070677 0.234733 -7.774988 1.628181 0.000000 0.000000 0.000000 2.495901 4.057480 -0.510263 0.796747 5.297384 2.422679 -0.050505 4.293763 -0.052748 0.000000 0.000000 0.000000 1.817887 4.741592 0.059255 -0.438340 3.636709 -5.329743 0.384262 4.846956 0.080779 0.000000 0.000000 0.000000 -1.231944 -2.326086 -0.198895 -1.056220 -4.305121 0.642195 -1.298002 -2.008607 0.037834 0.000000 0.000000 0.000000 1.513572 -5.781996 2.839002 1.749471 -1.101158 -0.186793 1.672968 -0.929679 0.775446 0.000000 0.000000 0.000000 
-3351.681641 930.284180 1107.324951 -10.771093 10.544874 -1.996577 0.349229 -0.199669 -0.429627 0.394159 0.049736 0.093173 0.381907 -0.032870 -0.077013 0.231698 -7.805239 1.606544 0.000000 0.000000 0.000000 2.451527 4.186617 -0.538533 0.794386 5.384359 2.276175 0.000131 3.954058 0.370690 0.000000 0.000000 0.000000 1.857929 4.802902 -0.165350 -0.404470 3.780640 -4.954248 0.348232 4.597227 0.015698 0.000000 0.000000 0.000000 -1.307923 -2.645397 -0.184085 -1.135350 -4.290988 0.714097 -1.360881 -2.221887 0.076377 0.000000 0.000000 0.000000 1.432352 -6.135056 2.885252 1.687230 -1.162123 -0.200084 1.609348 -1.047340 0.760484 0.000000 0.000000 0.000000 
-3341.386719 930.578186 1106.683960 -10.528755 11.433913 -2.119147 0.334508 -0.325278 -0.462679 0.393823 0.061463 0.108886 0.379726 -0.057138 -0.083941 0.218622 -7.692706 1.573968 0.000000 0.000000 0.000000 2.438544 4.367984 -0.536179 0.778617 5.490094 2.042376 0.076614 3.468876 0.997100 0.000000 0.000000 0.000000 1.899266 4.922998 -0.468287 -0.348228 4.015248 -4.451824 0.267650 4.104287 -0.241177 0.000000 0.000000 0.000000 -1.390389 -3.020257 -0.197439 -1.223470 -4.225155 0.819483 -1.423108 -2.477680 0.128487 0.000000 0.000000 0.000000 1.347079 -6.520696 2.920910 1.623543 -1.223826 -0.216946 1.543784 -1.175667 0.745693 0.000000 0.000000 0.000000 
-3330.064941 930.975586 1105.939941 -10.300478 12.260101 -2.216169 0.315155 -0.400582 -0.497405 0.386315 0.066628 0.121370 0.370323 -0.070095 -0.092187 0.206964 -7.582664 1.542802 0.000000 0.000000 0.000000 2.394010 4.497510 -0.471223 0.759453 5.515705 1.791374 0.138092 3.105658 1.489832 0.000000 0.000000 0.000000 1.949942 5.021862 -0.772643 -0.292597 4.225401 -3.962395 0.195789 3.657903 -0.483516 0.000000 0.000000 0.000000 -1.472697 -3.275310 -0.249049 -1.307151 -4.149894 0.907648 -1.481501 -2.726964 0.180897 0.000000 0.000000 0.000000 1.272778 -6.772479 2.919688 1.569059 -1.293794 -0.224858 1.488110 -1.286801 0.733062 0.000000 0.000000 0.000000 
-3317.682861 931.450562 1105.026001 -10.093562 12.949335 -2.266769 0.291045 -0.342824 -0.550572 0.365150 0.055116 0.133476 0.346423 -0.049743 -0.104851 0.200523 -7.513927 1.510246 0.000000 0.000000 0.000000 2.278800 4.500307 -0.293589 0.735391 5.372947 1.540073 0.153436 3.066673 1.610673 0.000000 0.000000 0.000000 2.030170 5.055853 -1.061370 -0.245513 4.356769 -3.510995 0.151619 3.377944 -0.630447 0.000000 0.000000 0.000000 -1.553063 -3.304564 -0.356366 -1.379709 -4.112857 0.958380 -1.537305 -2.943357 0.225258 0.000000 0.000000 0.000000 1.229663 -6.787510 2.850365 1.539487 -1.406960 -0.205494 1.459300 -1.366690 0.727992 0.000000 0.000000 0.000000 
-3304.274170 932.027893 1104.008057 -9.900113 13.575943 -2.293771 0.263488 -0.237341 -0.608551 0.336433 0.036141 0.147824 0.314084 -0.012390 -0.120569 0.195840 -7.450402 1.476577 0.000000 0.000000 0.000000 2.138404 4.446319 -0.059056 0.704104 5.149587 1.275351 0.152524 3.155848 1.603925 0.000000 0.000000 0.000000 2.122112 5.069352 -1.346282 -0.201311 4.461445 -3.082380 0.114484 3.142385 -0.758250 0.000000 0.000000 0.000000 -1.632374 -3.214955 -0.500348 -1.448102 -4.067196 0.992546 -1.590648 -3.132844 0.263344 0.000000 0.000000 0.000000 1.199327 -6.669067 2.745142 1.518694 -1.530474 -0.176697 1.440326 -1.411693 0.723159 0.000000 0.000000 0.000000 
-3289.819580 932.755188 1103.171997 -9.717440 14.226279 -2.339767 0.240959 -0.183483 -0.636745 0.314358 0.025019 0.154495 0.289584 0.012932 -0.129633 0.191330 -7.421401 1.461386 0.000000 0.000000 0.000000 2.035132 4.449765 0.102027 0.672643 5.013165 1.023282 0.184420 3.046410 1.858977 0.000000 0.000000 0.000000 2.184149 5.117938 -1.592392 -0.167533 4.584016 -2.762395 0.075526 2.880094 -0.892166 0.000000 0.000000 0.000000 -1.706589 -3.155677 -0.635398 -1.517642 -3.913164 1.024456 -1.635003 -3.290132 0.296278 0.000000 0.000000 0.000000 1.141561 -6.563568 2.673530 1.472692 -1.570795 -0.178801 1.395324 -1.407297 0.702660 0.000000 0.000000 0.000000 
